/* XPM */
static const char *eslogo[] = {
/* columns rows colors chars-per-pixel */
"32 32 9 1 ",
"  c #000000",
". c #008000",
"X c #808000",
"o c #000080",
"O c #800080",
"+ c #808080",
"@ c #C0C0C0",
"# c #FFFFFF",
"$ c None",
/* pixels */
"$$$$$$$$$$$$$$$$$$$$$$$$$$$$$$$$",
"$$$$$$$$$$$$$$$$$$$$$$$$$$$$$$$$",
"$$$$$$$$$$$$$$$$$$$$$$$$$$$$$$$$",
"$$$$$$$$$$$$$$$$$$$$$$$$$$$$$$$$",
"$$$+ +$$$$$$$$$$$$$$$$$$$$$$$$$$",
"$$ + + +$$$$$$$$$$$$$$$$$$$$$$$$",
"$$ @@##   +$$$$$$$$$$$$$$$$$$$$$",
"$+ ###@##@  ++   X+$$$$$$$$$$$$$",
"$$ +###+ +#+   +++  ++$$$$$$$$$$",
"$$+ @##@++##+++++++    +$$$$$$$$",
"$$$  ####+  +##+@+##@   $$$$$$$$",
"$$$+ +#+ ++@++@+++@###  +$$$$$$$",
"$$$$    +@##@++++o@###+   +$$$$$",
"$$$$+   @##@+@@#######@+   +$$$$",
"$$$+  +###+     @+X++####    $$$",
"$$$+  ++     ++      +###@   +$$",
"$$$+      +@#####@@   @###    $$",
"$$$+    @###+ +@###@  +##@    $$",
"$$$$   @##@  +  ###@  +##+    $$",
"$$$$+  ###+ #.O@###o  @#@     $$",
"$$$$$  +##+ +@#@++    ##+    +$$",
"$$$$$+  +##+    +  X+###+   +$$$",
"$$$$$+++ +#############+    $$$$",
"$$$$$+#+  +######@###@+     $$$$",
"$$$$+++     +@@@           @$$$$",
"$$$$ + @@                 +$$$$$",
"$$$$  ++                 +$$$$$$",
"$$$$+oX + ++ + ++$$++ ++$$$$$$$$",
"$$$$$$$$$$$$$$$$$$$$$$$$$$$$$$$$",
"$$$$$$$$$$$$$$$$$$$$$$$$$$$$$$$$",
"$$$$$$$$$$$$$$$$$$$$$$$$$$$$$$$$",
"$$$$$$$$$$$$$$$$$$$$$$$$$$$$$$$$"
};
