/* XPM */
static const char *eslogo[] = {
/* columns rows colors chars-per-pixel */
"64 64 208 2 ",
"   c #000000",
".  c #010101",
"X  c #020202",
"o  c #030303",
"O  c #040404",
"+  c #050505",
"@  c #060606",
"#  c #070707",
"$  c #080808",
"%  c #090909",
"&  c #0A0A0A",
"*  c #0B0B0B",
"=  c #0C0C0C",
"-  c #0D0D0D",
";  c #0E0E0E",
":  c #0F0F0F",
">  c #101010",
",  c #111111",
"<  c #121212",
"1  c #131313",
"2  c #141414",
"3  c #151515",
"4  c #161616",
"5  c #171717",
"6  c #181818",
"7  c #191919",
"8  c #1A1A1A",
"9  c #1B1B1B",
"0  c #1C1C1C",
"q  c #1D1D1D",
"w  c #1E1E1E",
"e  c #202020",
"r  c #212121",
"t  c #222222",
"y  c #232323",
"u  c #242424",
"i  c #252525",
"p  c #262626",
"a  c #272727",
"s  c #282828",
"d  c #292929",
"f  c #2A2A2A",
"g  c #2B2B2B",
"h  c #2C2C2C",
"j  c #2D2D2D",
"k  c #2E2E2E",
"l  c #2F2F2F",
"z  c #303030",
"x  c #313131",
"c  c #323232",
"v  c #333333",
"b  c #353535",
"n  c #393939",
"m  c #3A3A3A",
"M  c #3B3B3B",
"N  c #3C3C3C",
"B  c #3E3E3E",
"V  c #3F3F3F",
"C  c #404040",
"Z  c #414141",
"A  c #424242",
"S  c #434343",
"D  c #444444",
"F  c #454545",
"G  c #464646",
"H  c #494949",
"J  c #4A4A4A",
"K  c #4B4B4B",
"L  c #4D4D4D",
"P  c #4F4F4F",
"I  c #505050",
"U  c #515151",
"Y  c #525252",
"T  c #535353",
"R  c #545454",
"E  c #555555",
"W  c #565656",
"Q  c #575757",
"!  c #595959",
"~  c #5C5C5C",
"^  c #5E5E5E",
"/  c #5F5F5F",
"(  c #606060",
")  c #616161",
"_  c #636363",
"`  c #646464",
"'  c #656565",
"]  c #666666",
"[  c #676767",
"{  c #686868",
"}  c #696969",
"|  c #6A6A6A",
" . c #6B6B6B",
".. c #6C6C6C",
"X. c #6D6D6D",
"o. c #6E6E6E",
"O. c #6F6F6F",
"+. c #707070",
"@. c #727272",
"#. c #737373",
"$. c #747474",
"%. c #757575",
"&. c #767676",
"*. c #777777",
"=. c #7A7A7A",
"-. c #7C7C7C",
";. c #7D7D7D",
":. c #7F7F7F",
">. c #818181",
",. c #828282",
"<. c #838383",
"1. c #848484",
"2. c #868686",
"3. c #878787",
"4. c #888888",
"5. c #898989",
"6. c #8A8A8A",
"7. c #8B8B8B",
"8. c #8D8D8D",
"9. c #8E8E8E",
"0. c #8F8F8F",
"q. c #909090",
"w. c #919191",
"e. c #939393",
"r. c #959595",
"t. c #969696",
"y. c #979797",
"u. c #989898",
"i. c #999999",
"p. c #9A9A9A",
"a. c #9B9B9B",
"s. c #9D9D9D",
"d. c #9E9E9E",
"f. c #9F9F9F",
"g. c #A0A0A0",
"h. c #A1A1A1",
"j. c #A2A2A2",
"k. c #A4A4A4",
"l. c #A5A5A5",
"z. c #A6A6A6",
"x. c #A7A7A7",
"c. c #A8A8A8",
"v. c #ABABAB",
"b. c #ADADAD",
"n. c #AEAEAE",
"m. c #B0B0B0",
"M. c #B1B1B1",
"N. c #B3B3B3",
"B. c #B4B4B4",
"V. c #B7B7B7",
"C. c #B8B8B8",
"Z. c #B9B9B9",
"A. c #BABABA",
"S. c #BBBBBB",
"D. c #BCBCBC",
"F. c #BDBDBD",
"G. c #BEBEBE",
"H. c #C0C0C0",
"J. c #C2C2C2",
"K. c #C5C5C5",
"L. c #C7C7C7",
"P. c #CACACA",
"I. c #CCCCCC",
"U. c #CDCDCD",
"Y. c #CECECE",
"T. c #CFCFCF",
"R. c #D0D0D0",
"E. c #D1D1D1",
"W. c #D2D2D2",
"Q. c #D4D4D4",
"!. c #D7D7D7",
"~. c #D8D8D8",
"^. c #D9D9D9",
"/. c #DADADA",
"(. c #DCDCDC",
"). c #DDDDDD",
"_. c #DFDFDF",
"`. c #E0E0E0",
"'. c #E1E1E1",
"]. c #E2E2E2",
"[. c #E3E3E3",
"{. c #E4E4E4",
"}. c #E5E5E5",
"|. c #E6E6E6",
" X c #E7E7E7",
".X c #E8E8E8",
"XX c #EBEBEB",
"oX c #ECECEC",
"OX c #EDEDED",
"+X c #EEEEEE",
"@X c #EFEFEF",
"#X c #F0F0F0",
"$X c #F1F1F1",
"%X c #F2F2F2",
"&X c #F3F3F3",
"*X c #F4F4F4",
"=X c #F5F5F5",
"-X c #F6F6F6",
";X c #F7F7F7",
":X c #F8F8F8",
">X c #F9F9F9",
",X c #FAFAFA",
"<X c #FBFBFB",
"1X c #FCFCFC",
"2X c #FDFDFD",
"3X c #FEFEFE",
"4X c #FFFFFF",
"5X c None",
/* pixels */
"5X5X5X5X5X5X5X5X5X5X5X5X5X5X5X5X5X5X5X5X5X5X5X5X5X5X5X5X5X5X5X5X5X5X5X5X5X5X5X5X5X5X5X5X5X5X5X5X5X5X5X5X5X5X5X5X5X5X5X5X5X5X5X5X",
"5X5X5X5X5X5X5X5X5X5X5X5X5X5X5X5X5X5X5X5X5X5X5X5X5X5X5X5X5X5X5X5X5X5X5X5X5X5X5X5X5X5X5X5X5X5X5X5X5X5X5X5X5X5X5X5X5X5X5X5X5X5X5X5X",
"5X5X5X5X5X5X5X5X5X5X5X5X5X5X5X5X5X5X5X5X5X5X5X5X5X5X5X5X5X5X5X5X5X5X5X5X5X5X5X5X5X5X5X5X5X5X5X5X5X5X5X5X5X5X5X5X5X5X5X5X5X5X5X5X",
"5X5X5X5X5X5X5X5X5X5X5X5X5X5X5X5X5X5X5X5X5X5X5X5X5X5X5X5X5X5X5X5X5X5X5X5X5X5X5X5X5X5X5X5X5X5X5X5X5X5X5X5X5X5X5X5X5X5X5X5X5X5X5X5X",
"5X5X5X5X5X5X5X5X5X5X5X5X5X5X5X5X5X5X5X5X5X5X5X5X5X5X5X5X5X5X5X5X5X5X5X5X5X5X5X5X5X5X5X5X5X5X5X5X5X5X5X5X5X5X5X5X5X5X5X5X5X5X5X5X",
"5X5X5X5X5X5X5X5X5X5X5X5X5X5X5X5X5X5X5X5X5X5X5X5X5X5X5X5X5X5X5X5X5X5X5X5X5X5X5X5X5X5X5X5X5X5X5X5X5X5X5X5X5X5X5X5X5X5X5X5X5X5X5X5X",
"5X5X5X5X5X5X5X5X5X5X5X5X5X5X5X5X5X5X5X5X5X5X5X5X5X5X5X5X5X5X5X5X5X5X5X5X5X5X5X5X5X5X5X5X5X5X5X5X5X5X5X5X5X5X5X5X5X5X5X5X5X5X5X5X",
"5X5X5X5X5X5X5X5X5X5X5X5X5X5X5X5X5X5X5X5X5X5X5X5X5X5X5X5X5X5X5X5X5X5X5X5X5X5X5X5X5X5X5X5X5X5X5X5X5X5X5X5X5X5X5X5X5X5X5X5X5X5X5X5X",
"5X5X5X5X5X1       t 5X5X5X5X5X5X5X5X5X5X5X5X5X5X5X5X5X5X5X5X5X5X5X5X5X5X5X5X5X5X5X5X5X5X5X5X5X5X5X5X5X5X5X5X5X5X5X5X5X5X5X5X5X5X",
"5X5X5X5X                Y 5X5X5X5X5X5X5X5X5X5X5X5X5X5X5X5X5X5X5X5X5X5X5X5X5X5X5X5X5X5X5X5X5X5X5X5X5X5X5X5X5X5X5X5X5X5X5X5X5X5X5X",
"5X5X5X      G.b.  4Xb.*   @ ! 5X5X5X5X5X5X5X5X5X5X5X5X5X5X5X5X5X5X5X5X5X5X5X5X5X5X5X5X5X5X5X5X5X5X5X5X5X5X5X5X5X5X5X5X5X5X5X5X5X",
"5X5X5X    =.4Xp J 4X4X4Xq.    @ 5X,.5X5X5X5X5X5X5X5X5X5X5X5X5X5X5X5X5X5X5X5X5X5X5X5X5X5X5X5X5X5X5X5X5X5X5X5X5X5X5X5X5X5X5X5X5X5X",
"5X5Xp     4X4X].4X<X4X4X4X&Xw       @   w 5X5X5X5X5X5X5X5X5X5X5X5X5X5X5X5X5X5X5X5X5X5X5X5X5X5X5X5X5X5X5X5X5X5X5X5X5X5X5X5X5X5X5X",
"5X5X1 @ w 4X4X4X4X4X4X4X4X4X4X3._ Q 1       : 5X5X5X5X5X5X5X5Xq.5.5X5X5X5X5X5X5X5X5X5X5X5X5X5X5X5X5X5X5X5X5X5X5X5X5X5X5X5X5X5X5X",
"5X5X: @ w 4X4X4X4X4X4X;XN J.4X4X4X4X4X(.p       5.5X5X! *         @   * o.5X5X5X5X5X5X5X5X5X5X5X5X5X5X5X5X5X5X5X5X5X5X5X5X5X5X5X",
"5X5XP     /.4X4X<X4X4X4X4XY [ XXoX4X4X4X4X,.      w           : 1 @         5X5X5X5X5X5X5X5X5X5X5X5X5X5X5X5X5X5X5X5X5X5X5X5X5X5X",
"5X5X5X    4 4X4X4X4X4X4X<X4X      * ! 4X4X4Xg.              M ~ g.4X4XV.*     Q [ _ -.5X5X5X5X5X5X5X5X5X5X5X5X5X5X5X5X5X5X5X5X5X",
"5X5X5XQ     *.4X4X4X<X4X4X4XW.        @ <X4X4XV.@   d d.5.+.M       r.4X4X4               v 5X5X5X5X5X5X5X5X5X5X5X5X5X5X5X5X5X5X",
"5X5X5X5X      (.4X4X<X4X4X4X4Xr.      t ].4X4X4X].:   ! G.&X4X4XK.4   8.4XoX      @           -.5X5X5X5X5X5X5X5X5X5X5X5X5X5X5X5X",
"5X5X5X5X=.    * 4X<X4X4X<X4X4X4X&XY.<X4X4X4X4X4X4X4X(.l.Q *   8.4X4XD   {.4XM S N 8   @         -.5X5X5X5X5X5X5X5X5X5X5X5X5X5X5X",
"5X5X5X5X5X      [ 4X4X4X4X4X4X4X<X4X4X{.u.Q w 4 : XX<X4X4X4XoXk t 4X4X8 d 4X4X4X4X4X{.d           5X5X5X5X5X5X5X5X5X5X5X5X5X5X5X",
"5X5X5X5X5X5X      Y.4X4X4X4X4X4X4Xr.:             *.;X,.4X4X4X4Xd Q 4X{.  {.4X4X4X4X4X4XQ       @ w 5X5X5X5X5X5X5X5X5X5X5X5X5X5X",
"5X5X5X5X5X5X4   @ * 4X4X<X4X4XJ.          t M t     ;XXXk k *.r.S   &X4X4 ,.4X4X<X4X4X4X4Xt         5X5X5X5X5X5X5X5X5X5X5X5X5X5X",
"5X5X5X5X5X5X5X      +.4X4X4X .      1 J.4X4X4X4XG.    XX4XoXc.*.,.V.<X4X5.@ 4X4X4X4X4X4X<X{.        5X5X5X5X5X5X5X5X5X5X5X5X5X5X",
"5X5X5X5X5X5X5XQ       c.g.,.      p 4X4X4X<X4X<X4X4XJ   v P.&X4X4X&X/.u.v   <X4X<X4X4X4X4X4Xk         : *.5X5X5X5X5X5X5X5X5X5X5X",
"5X5X5X5X5X5X5X5X@             @ @ 4X4X4X4X4X4X4X4X4X4X&X-.    @         8 *.4X4X4X4X4X<X4X<XG.  @           _ 5X5X5X5X5X5X5X5X5X",
"5X5X5X5X5X5X5X5X@               u.4X4X4X4X4X4X<X<X<X4X<X4X4X<XoX{.].&X4X4X4X<X4X<X4X4X<X4X<X&Xk *   @           5X5X5X5X5X5X5X5X",
"5X5X5X5X5X5X5Xk               w 4X<X4X<X4X<X4X&X(.Y.K./.XX4X4X<X4X4X4X4X4X<X4X4X4X4X4X4X4X4X4X4X4XW.8             8.5X5X5X5X5X5X",
"5X5X5X5X5X5X5X            +.<X4X4X4X4X<X4XP.4             @ S oX4X4X<X4X4X4X4X4X4X4X<X4X4X<X4X4X4X4X4X8.            *.5X5X5X5X5X",
"5X5X5X5X5X5XD           3.4X4X4X<X4X4X4X*.                      g.4X{.r.J p 8 8 v +.].4X<X4X4X<X4X4X4X4Xl.            5X5X5X5X5X",
"5X5X5X5X5X5X*           4X<X4X4X;X<X4X,.            @   @         4 @                 v 4X4X4X4X4X4X4X4X4XJ         @   5X5X5X5X",
"5X5X5X5X5X5X        @ 4 4X4X_ @     w         @     @ 1 1 @           @                   <X4X4X<X4X4X4X;X&X@           t 5X5X5X",
"5X5X5X5X5X5X          @ (.@                   1 +./.4X4X4X4X/.Y     * : @                 v 4X4X4X4X4X4X<X4X1             5X5X5X",
"5X5X5X5X5X5X            @           @     * A.4X4X4X4X4X4X4X4X4X(.oX4X4X4XXXu.*             /.4X4X<X4X<X4X4Xv             Y 5X5X",
"5X5X5X5X5X5X*                       * : 4 4X4X4X4X<X4X4X4X4X<X4X4X4X4X4X4X4X4X4Xk           P 4X<X4X4X4X4X4XN           @ 4 5X5X",
"5X5X5X5X5X5Xd                   S ].4X4X4X4X4X<X4XXXl.o.o.V.4X4X4X4X4X4X4X4X4X<X4X        @ 8 4X4X4X4X<X4X4Xv             : 5X5X",
"5X5X5X5X5X5X5X            @   K.4X4X4X4X4X4X4XoXM           @ /.4X4X4X<X4X4X4X4X4Xt       @ : 4X4X4X<X4X<X4X:           @ * 5X5X",
"5X5X5X5X5X5X5X              J.4X4X4X<X4X4X4X5.                  ].4X4X4X4X<X4X<X4Xt         : 4X4X<X4X4X<X].            @ 1 5X5X",
"5X5X5X5X5X5X5X-.          t 4X4X4X4X4X4X4Xo.      p Q.W.@       D 4X4X4X4X<X4X<X<X        @ 4 4X4X4X4X4X4XS               v 5X5X",
"5X5X5X5X5X5X5X5X*         _ 4X4X4X<X4X<XXX      @ 4X;X4Xw       r.4X<X4X4X4X4X4X,.          k 4X4X<X4X<XW.                ,.5X5X",
"5X5X5X5X5X5X5X5X5X        ~ 4X4X<X4X4X4X3.      S 4X .  @   5.oX4X<X4X4X4X4X4X/.            3.4X4X4X<X<X@                 5X5X5X",
"5X5X5X5X5X5X5X5X5X1     @ w 4X4X4X4X<X4XM.    @ b 4X;XY [ &X4X4X4X4X4X4X4X4XM.              <X4X4X4X4X4                 M 5X5X5X",
"5X5X5X5X5X5X5X5X5X-.        A.4X4X4X4X<X4X        P.4X4X4X<X4X4X4Xw : M D 1                .4X4X<X4X4XQ             @   5X5X5X5X",
"5X5X5X5X5X5X5X5X5X5X          /.4X<X4X4X4X/.  @     v g.].(.V.Y                     @   D 4X<X4X4X4X4XM           @ w 5X5X5X5X5X",
"5X5X5X5X5X5X5X5X5X5. .: @       g.4X4X4X4X4X].:   @               4     @ @       @ 8 b.4X4X4X<X4X;X4X          @ 4 5X5X5X5X5X5X",
"5X5X5X5X5X5X5X5X5XY {.*.    @     d Q.4X4X4X4X4XM.d @   @   1 Y P.4X]._ t 8 k ~ l.oX4X4X4X4X4X4X4X4X_           @ p 5X5X5X5X5X5X",
"5X5X5X5X5X5X5X5X5Xw 4X  <XK.p       N 4X4X4X4X4X4X4X4X&X&X<X4X4X4X4X4X4X4X4X4X4X4X4X4X4X4X<X4X<X4Xg.              [ 5X5X5X5X5X5X",
"5X5X5X5X5X5X5X5X5Xd Y.t 4X4X4XD   @ : 4X<X4X4X4X<X4X4X4X<X4X4X4X4X4X<X4X4X4X4X4X4X4X4X4X4X4X<X4X,.                5X5X5X5X5X5X5X",
"5X5X5X5X5X5X5X5X5X*.p P.4X4Xd.        S 4X4X4X4X4X4X4X<X<X4X4X4X<X4X4X4X<X4X4X4X4X4X4X4X<X4XXXk               @ 1 5X5X5X5X5X5X5X",
"5X5X5X5X5X5X5X5X5Xd.* 4X<X].  5X        * K.4X4X<X4X4X4X4X4X4X<X4X<X4XY.;X4X4X4X4X4X4X4XXX_                     5X5X5X5X5X5X5X5X",
"5X5X5X5X5X5X5X5X .J q.4X4X  5X3.            4 A.4X4X<X<X<X<X<X<X4X;Xw     : p J  .~ N 1                       d 5X5X5X5X5X5X5X5X",
"5X5X5X5X5X5X5X5XM : 4X4Xv 5X~ M :                 P K.oX<X4X;X].o.                                        @ @ 5X5X5X5X5X5X5X5X5X",
"5X5X5X5X5X5X5X5X  [ 4X3.[ S  .4X~                         *   @                                         @   5X5X5X5X5X5X5X5X5X5X",
"5X5X5X5X5X5X5X5X    d.t p d.4X;X4X@                                     @                               8 5X5X5X5X5X5X5X5X5X5X5X",
"5X5X5X5X5X5X5XY         Q.4X4X4X4X(.                                *   *     @                 @     *.5X5X5X5X5X5X5X5X5X5X5X5X",
"5X5X5X5X5X5X5X  @ @ @ @ P 8.S w * * @ @ @ @ @ @ @ @ @ @ @           8 5X5X5XD *                   J 5X5X5X5X5X5X5X5X5X5X5X5X5X5X",
"5X5X5X5X5X5X5Xd d k d d p p p p p t p p t p t p t t w t k D o.5X5X5X5X5X5X5X5X5X5X5X3. .! o.5X5X5X5X5X5X5X5X5X5X5X5X5X5X5X5X5X5X",
"5X5X5X5X5X5X5X5X5X5X5X5X5X5X5X5X5X5X5X5X5X5X5X5X5X5X5X5X5X5X5X5X5X5X5X5X5X5X5X5X5X5X5X5X5X5X5X5X5X5X5X5X5X5X5X5X5X5X5X5X5X5X5X5X",
"5X5X5X5X5X5X5X5X5X5X5X5X5X5X5X5X5X5X5X5X5X5X5X5X5X5X5X5X5X5X5X5X5X5X5X5X5X5X5X5X5X5X5X5X5X5X5X5X5X5X5X5X5X5X5X5X5X5X5X5X5X5X5X5X",
"5X5X5X5X5X5X5X5X5X5X5X5X5X5X5X5X5X5X5X5X5X5X5X5X5X5X5X5X5X5X5X5X5X5X5X5X5X5X5X5X5X5X5X5X5X5X5X5X5X5X5X5X5X5X5X5X5X5X5X5X5X5X5X5X",
"5X5X5X5X5X5X5X5X5X5X5X5X5X5X5X5X5X5X5X5X5X5X5X5X5X5X5X5X5X5X5X5X5X5X5X5X5X5X5X5X5X5X5X5X5X5X5X5X5X5X5X5X5X5X5X5X5X5X5X5X5X5X5X5X",
"5X5X5X5X5X5X5X5X5X5X5X5X5X5X5X5X5X5X5X5X5X5X5X5X5X5X5X5X5X5X5X5X5X5X5X5X5X5X5X5X5X5X5X5X5X5X5X5X5X5X5X5X5X5X5X5X5X5X5X5X5X5X5X5X",
"5X5X5X5X5X5X5X5X5X5X5X5X5X5X5X5X5X5X5X5X5X5X5X5X5X5X5X5X5X5X5X5X5X5X5X5X5X5X5X5X5X5X5X5X5X5X5X5X5X5X5X5X5X5X5X5X5X5X5X5X5X5X5X5X",
"5X5X5X5X5X5X5X5X5X5X5X5X5X5X5X5X5X5X5X5X5X5X5X5X5X5X5X5X5X5X5X5X5X5X5X5X5X5X5X5X5X5X5X5X5X5X5X5X5X5X5X5X5X5X5X5X5X5X5X5X5X5X5X5X"
};
