/* XPM */
static char *electricsheep[] = {
/* columns rows colors chars-per-pixel */
"48 48 220 2 ",
"   c #000000",
".  c #010101",
"X  c #020202",
"o  c #030303",
"O  c #040404",
"+  c #050505",
"@  c #060606",
"#  c #070707",
"$  c #080808",
"%  c #090909",
"&  c #0A0A0A",
"*  c #0B0B0B",
"=  c #0C0C0C",
"-  c #0D0D0D",
";  c #0E0E0E",
":  c #0F0F0F",
">  c #101010",
",  c #111111",
"<  c #121212",
"1  c #131313",
"2  c #141414",
"3  c #151515",
"4  c #161616",
"5  c #171717",
"6  c #181818",
"7  c #191919",
"8  c #1A1A1A",
"9  c #1B1B1B",
"0  c #1C1C1C",
"q  c #1D1D1D",
"w  c #1E1E1E",
"e  c #1F1F1F",
"r  c #202020",
"t  c #212121",
"y  c #222222",
"u  c #232323",
"i  c #242424",
"p  c #252525",
"a  c #262626",
"s  c #272727",
"d  c #282828",
"f  c #292929",
"g  c #2A2A2A",
"h  c #2B2B2B",
"j  c #2C2C2C",
"k  c #2E2E2E",
"l  c #2F2F2F",
"z  c #303030",
"x  c #333333",
"c  c #353535",
"v  c #363636",
"b  c #373737",
"n  c #383838",
"m  c #393939",
"M  c #3A3A3A",
"N  c #3B3B3B",
"B  c #3C3C3C",
"V  c #3D3D3D",
"C  c #3E3E3E",
"Z  c #3F3F3F",
"A  c #404040",
"S  c #414141",
"D  c #434343",
"F  c #444444",
"G  c #464646",
"H  c #474747",
"J  c #484848",
"K  c #494949",
"L  c #4A4A4A",
"P  c #4B4B4B",
"I  c #4C4C4C",
"U  c #4D4D4D",
"Y  c #4E4E4E",
"T  c #4F4F4F",
"R  c #505050",
"E  c #525252",
"W  c #535353",
"Q  c #545454",
"!  c #565656",
"~  c #575757",
"^  c #585858",
"/  c #595959",
"(  c #5A5A5A",
")  c #5B5B5B",
"_  c #5C5C5C",
"`  c #5E5E5E",
"'  c #606060",
"]  c #616161",
"[  c #626262",
"{  c #636363",
"}  c #646464",
"|  c #656565",
" . c #666666",
".. c #676767",
"X. c #696969",
"o. c #6A6A6A",
"O. c #6E6E6E",
"+. c #6F6F6F",
"@. c #707070",
"#. c #717171",
"$. c #727272",
"%. c #737373",
"&. c #747474",
"*. c #767676",
"=. c #777777",
"-. c #787878",
";. c #797979",
":. c #7A7A7A",
">. c #7B7B7B",
",. c #7C7C7C",
"<. c #7E7E7E",
"1. c #808080",
"2. c #818181",
"3. c #828282",
"4. c #848484",
"5. c #858585",
"6. c #868686",
"7. c #878787",
"8. c #888888",
"9. c #8B8B8B",
"0. c #8C8C8C",
"q. c #8D8D8D",
"w. c #919191",
"e. c #939393",
"r. c #959595",
"t. c #969696",
"y. c #979797",
"u. c #989898",
"i. c #999999",
"p. c #9A9A9A",
"a. c #9B9B9B",
"s. c #9C9C9C",
"d. c #9D9D9D",
"f. c #9E9E9E",
"g. c #9F9F9F",
"h. c #A1A1A1",
"j. c #A2A2A2",
"k. c #A3A3A3",
"l. c #A5A5A5",
"z. c #A6A6A6",
"x. c #A7A7A7",
"c. c #A8A8A8",
"v. c #A9A9A9",
"b. c #AAAAAA",
"n. c #ABABAB",
"m. c #ACACAC",
"M. c #ADADAD",
"N. c #AEAEAE",
"B. c #AFAFAF",
"V. c #B0B0B0",
"C. c #B1B1B1",
"Z. c #B2B2B2",
"A. c #B3B3B3",
"S. c #B4B4B4",
"D. c #B6B6B6",
"F. c #B7B7B7",
"G. c #B8B8B8",
"H. c #BABABA",
"J. c #BCBCBC",
"K. c #BDBDBD",
"L. c #BEBEBE",
"P. c #BFBFBF",
"I. c #C0C0C0",
"U. c #C1C1C1",
"Y. c #C2C2C2",
"T. c #C3C3C3",
"R. c #C4C4C4",
"E. c #C5C5C5",
"W. c #C6C6C6",
"Q. c #C7C7C7",
"!. c #C8C8C8",
"~. c #C9C9C9",
"^. c #CACACA",
"/. c #CCCCCC",
"(. c #CFCFCF",
"). c #D0D0D0",
"_. c #D1D1D1",
"`. c #D2D2D2",
"'. c #D4D4D4",
"]. c #D5D5D5",
"[. c #D6D6D6",
"{. c #D8D8D8",
"}. c #D9D9D9",
"|. c #DBDBDB",
" X c #DCDCDC",
".X c #DDDDDD",
"XX c #DEDEDE",
"oX c #DFDFDF",
"OX c #E0E0E0",
"+X c #E1E1E1",
"@X c #E2E2E2",
"#X c #E3E3E3",
"$X c #E4E4E4",
"%X c #E5E5E5",
"&X c #E6E6E6",
"*X c #E7E7E7",
"=X c #E9E9E9",
"-X c #EAEAEA",
";X c #EBEBEB",
":X c #ECECEC",
">X c #EDEDED",
",X c #EEEEEE",
"<X c #EFEFEF",
"1X c #F0F0F0",
"2X c #F1F1F1",
"3X c #F2F2F2",
"4X c #F3F3F3",
"5X c #F4F4F4",
"6X c #F5F5F5",
"7X c #F6F6F6",
"8X c #F7F7F7",
"9X c #F8F8F8",
"0X c #F9F9F9",
"qX c #FAFAFA",
"wX c #FBFBFB",
"eX c #FCFCFC",
"rX c #FDFDFD",
"tX c #FEFEFE",
"yX c #FFFFFF",
"uX c None",
/* pixels */
"uXuXuXuXuXuXuXuXuXuXuXuXuXuXuXuXuXuXuXuXuXuXuXuXuXuXuXuXuXuXuXuXuXuXuXuXuXuXuXuXuXuXuXuXuXuXuXuX",
"uXuXuXuXuXuXuXuXuXuXuXuXuXuXuXuXuXuXuXuXuXuXuXuXuXuXuXuXuXuXuXuXuXuXuXuXuXuXuXuXuXuXuXuXuXuXuXuX",
"uXuXuXuXuXuXuXuXuXuXuXuXuXuXuXuXuXuXuXuXuXuXuXuXuXuXuXuXuXuXuXuXuXuXuXuXuXuXuXuXuXuXuXuXuXuXuXuX",
"uXuXuXuXuXuXuXuXuXuXuXuXuXuXuXuXuXuXuXuXuXuXuXuXuXuXuXuXuXuXuXuXuXuXuXuXuXuXuXuXuXuXuXuXuXuXuXuX",
"uXuXuXuXuXuXuXuXuXuXuXuXuXuXuXuXuXuXuXuXuXuXuXuXuXuXuXuXuXuXuXuXuXuXuXuXuXuXuXuXuXuXuXuXuXuXuXuX",
"uXuXuXuXuXuXuXuXuXuXuXuXuXuXuXuXuXuXuXuXuXuXuXuXuXuXuXuXuXuXuXuXuXuXuXuXuXuXuXuXuXuXuXuXuXuXuXuX",
"uXuXuXuX    + % uXuXuXuXuXuXuXuXuXuXuXuXuXuXuXuXuXuXuXuXuXuXuXuXuXuXuXuXuXuXuXuXuXuXuXuXuXuXuXuX",
"uXuXuX  z E g o.t w uXuXuXuXuXuXuXuXuXuXuXuXuXuXuXuXuXuXuXuXuXuXuXuXuXuXuXuXuXuXuXuXuXuXuXuXuXuX",
"uXuX  8 n.5.:.wXE.` 5 + uXuXuXuXuXuXuXuXuXuXuXuXuXuXuXuXuXuXuXuXuXuXuXuXuXuXuXuXuXuXuXuXuXuXuXuX",
"uXuX+ J wX*X2XeXeXwXg.j 8 ,   - uXuXuXuXuXuXuXuXuXuXuXuXuXuXuXuXuXuXuXuXuXuXuXuXuXuXuXuXuXuXuXuX",
"uX, + / eXeXeXeX2XD.,X`.A.u.+.5   - uXuXuXuX  C C   uXuXuXuXuXuXuXuXuXuXuXuXuXuXuXuXuXuXuXuXuXuX",
"uXuX- C ,XeXeXeXwXD.2.!.*X2XwXA.C + t - ,     - 8 w , 5 uXuXuXuXuXuXuXuXuXuXuXuXuXuXuXuXuXuXuXuX",
"uXuX8 % <.8XeXeXeXeXr.8 5 c l.wX`.J   % t t s m $.J.H.C   j J E uXuXuXuXuXuXuXuXuXuXuXuXuXuXuXuX",
"uXuXuX  w U.eXeXeXeX8X+.+   t +XeXXX` , { l.l.8.Y j B.XXA         % , uXuXuXuXuXuXuXuXuXuXuXuXuX",
"uXuXuXm   A -XeXeXeXeX,XB.B.E.,X,X,XXXA.u.:.{ r.|.<.c |.h.m m w +     t { uXuXuXuXuXuXuXuXuXuXuX",
"uXuXuXuX    :.eXeXeXeXeXeX].B.$.m t Y *X*X,X+X5.{ *X$.{ 8X,X,X*X:.,     - uXuXuXuXuXuXuXuXuXuXuX",
"uXuXuXuXuX+ 8 D.eXeXeX+X<.g   + 5 , - u.!.u.n.H.m w.*XJ |.eXeXeXwX8.%   + uXuXuXuXuXuXuXuXuXuXuX",
"uXuXuXuXuX%   H +XwXU.A   - :.J.E.E.$.z B.D.B.w.2.U.2X/ w.eXeXeXeX2X/       uXuXuXuXuXuXuXuXuXuX",
"uXuXuXuXuXA % + { <.m   , l.eXeXeXeXwXB./  .g.n.B.l.&.g q.eXeXeXeXeXl.,     , H uXuXuXuXuXuXuXuX",
"uXuXuXuXuXuX          + :.eXeXeXeXeXeXeX2XA.2.:.&.&.<.r.XXeXeXeXeXeX,XJ +       8 8 uXuXuXuXuXuX",
"uXuXuXuXuXt +       - c +XeXeXeX8X+X`.E.(.*X8XeXeXeXeXeXeXeXeXeXeXeXeX|.D.{ -       s uXuXuXuXuX",
"uXuXuXuXuX-       m H.,XeXeXeX].` 5 , , - 5 j r.2XeX,X(.E.U.(.,XeXeXeXeXeX8XB.g     + j uXuXuXuX",
"uXuXuXuXuX%     , U.eXeXwXeX!.c               + / 2.E s , - w Q r.8XeXeXeXeXeXn.,         uXuXuX",
"uXuXuXuXuX      t -XH./ A Y j       % 5 w t 5 +                 % +.wXeXeXeXeX8X .      + 8 uXuX",
"uXuXuXuXuX      5 $.,           5 Y u.XX-X,X+X8.C H E J c %       + r.eXeXeXeXeXq.        % uXuX",
"uXuXuXuX+                 + % g A.wXeXeXeXeXeXeX,XwXeXeX+Xq.8       Y *XeXeXeXeXg.%       , uXuX",
"uXuXuXuXuX%           - Q A.J.].eXeX,XE.r.u.`.wXeXeXeXeXeXeXu.      5 E.eXeXeXeXu.%       % uXuX",
"uXuXuXuXuX          8 h.8XeXeXeX2XD.C -   % , 5.wXeXeXeXeXeX!.,     % J.eXeXeXeX5.        + uXuX",
"uXuXuXuXuXc %       :.wXeXeXeX-X<.,   A { %   - n.eXeXeXeXeXU.%     - U.eXeXeX*XJ         - uXuX",
"uXuXuXuXuXuX+     5 n.eXeXeXeXA.-   m ].(.w   8 g.eXeXeXeXwX&.      8 E.eXeXeXg.%         w uXuX",
"uXuXuXuXuXuXuX    , n.eXeXeXwX:.  + +.`.H s $.`.wXeXeXeXwXn.5       Y -XeXeXJ.w           5 uXuX",
"uXuXuXuXuXuXuXs     &.wXeXeXeXh.    Y ,XJ.U.wXeX+X8.r.u.+.8       - u.eXeXeXo.          + uXuXuX",
"uXuXuXuXuXuXuXg     8 n.wXeXeX,X`   % Y h.].!.5.c   + %         -  .,XeXeXeX$.        - uXuXuXuX",
"uXuXuXuXuXuXuX<.C     5 5.XXeXeX,X$.s     - - 8 c J w + + 5 j Y h.2XeXeXeX-XC       % 5 uXuXuXuX",
"uXuXuXuXuXuXuXr.:.+.C     E *XeXeXeX!.q.<.<.2.l.-XwXU.w.r.n.|.eXeXeXeXeX8X<.-       5 uXuXuXuXuX",
"uXuXuXuXuXuXuX:.o.-X|.Y   - H.eXeXeXeXeXeXeXeXeXeXeXeXeXeXeXeXeXeXeXeX,X2.5         - uXuXuXuXuX",
"uXuXuXuXuXuXuXE h.eXJ.g     m U.eXeXeXeXeXeXeXeXeXeXwXeXeXeXeXeXeX8XU.E +           % uXuXuXuXuX",
"uXuXuXuXuXuX$.{ `.XXY E %     w &.!.eXeXeXeXeXeXeXE.$.<.q.h.D.l.q. .8             , uXuXuXuXuXuX",
"uXuXuXuXuXuXc 8.,X+.A / ,         s E g.XX*X*X`.2.s       - 8 ,                 + uXuXuXuXuXuXuX",
"uXuXuXuXuXuX, r.w.Y &.(.o.            + 5 5 8 , +                             + uXuXuXuXuXuXuXuX",
"uXuXuXuXuXuX+ g j 5.*XeXXXm                           +                     g uXuXuXuXuXuXuXuXuX",
"uXuXuXuXuX8 % + - :.q.` Y g % + % + % + + % % +   - uXuXs 5   + - - +   , g uXuXuXuXuXuXuXuXuXuX",
"uXuXuXuXuXs s s s g g w 8 w t t t t w w w j Y uXuXuXuXuXuXuXuXuX{ Q uXuXuXuXuXuXuXuXuXuXuXuXuXuX",
"uXuXuXuXuXuXuXuXuXuXuXuXuXuXuXuXuXuXuXuXuXuXuXuXuXuXuXuXuXuXuXuXuXuXuXuXuXuXuXuXuXuXuXuXuXuXuXuX",
"uXuXuXuXuXuXuXuXuXuXuXuXuXuXuXuXuXuXuXuXuXuXuXuXuXuXuXuXuXuXuXuXuXuXuXuXuXuXuXuXuXuXuXuXuXuXuXuX",
"uXuXuXuXuXuXuXuXuXuXuXuXuXuXuXuXuXuXuXuXuXuXuXuXuXuXuXuXuXuXuXuXuXuXuXuXuXuXuXuXuXuXuXuXuXuXuXuX",
"uXuXuXuXuXuXuXuXuXuXuXuXuXuXuXuXuXuXuXuXuXuXuXuXuXuXuXuXuXuXuXuXuXuXuXuXuXuXuXuXuXuXuXuXuXuXuXuX",
"uXuXuXuXuXuXuXuXuXuXuXuXuXuXuXuXuXuXuXuXuXuXuXuXuXuXuXuXuXuXuXuXuXuXuXuXuXuXuXuXuXuXuXuXuXuXuXuX"
};
